<mxfile host="app.diagrams.net" modified="2024-06-20T15:21:55.931Z" agent="Mozilla/5.0 (Windows NT 10.0; Win64; x64) AppleWebKit/537.36 (KHTML, like Gecko) Chrome/126.0.0.0 Safari/537.36" version="24.5.5" etag="GVsVW0UkptZ9VHA-udL9" type="github">
  <diagram name="Page-1" id="AENinbRROP7iKex5AKBJ">
    <mxGraphModel>
      <root>
        <mxCell id="0" />
        <mxCell id="1" parent="0" />
      </root>
    </mxGraphModel>
  </diagram>
</mxfile>
